<svg width="306" height="137" viewBox="0 0 306 137" fill="none" xmlns="http://www.w3.org/2000/svg">
<rect x="3" width="285" height="137" rx="20" fill="url(#paint0_linear_517_113)"/>
<path d="M74.5154 84.848V91.904C74.5154 92.896 74.7554 93.632 75.2354 94.112C75.726 94.592 76.4034 94.832 77.2674 94.832C78.1207 94.832 78.7874 94.592 79.2674 94.112C79.758 93.632 80.0034 92.896 80.0034 91.904V84.848H81.4594V91.888C81.4594 92.816 81.2727 93.6 80.8994 94.24C80.526 94.8693 80.0194 95.3387 79.3794 95.648C78.75 95.9573 78.0407 96.112 77.2514 96.112C76.462 96.112 75.7474 95.9573 75.1074 95.648C74.478 95.3387 73.9767 94.8693 73.6034 94.24C73.2407 93.6 73.0594 92.816 73.0594 91.888V84.848H74.5154ZM85.3443 88.848C85.6323 88.3467 86.0589 87.9307 86.6243 87.6C87.2003 87.2587 87.8669 87.088 88.6243 87.088C89.4029 87.088 90.1069 87.2747 90.7362 87.648C91.3762 88.0213 91.8776 88.5493 92.2403 89.232C92.6029 89.904 92.7843 90.688 92.7843 91.584C92.7843 92.4693 92.6029 93.2587 92.2403 93.952C91.8776 94.6453 91.3762 95.184 90.7362 95.568C90.1069 95.952 89.4029 96.144 88.6243 96.144C87.8776 96.144 87.2163 95.9787 86.6403 95.648C86.0749 95.3067 85.6429 94.8853 85.3443 94.384V100.16H83.8883V87.232H85.3443V88.848ZM91.2963 91.584C91.2963 90.9227 91.1629 90.3467 90.8963 89.856C90.6296 89.3653 90.2669 88.992 89.8083 88.736C89.3603 88.48 88.8643 88.352 88.3203 88.352C87.7869 88.352 87.2909 88.4853 86.8323 88.752C86.3843 89.008 86.0216 89.3867 85.7443 89.888C85.4776 90.3787 85.3443 90.9493 85.3443 91.6C85.3443 92.2613 85.4776 92.8427 85.7443 93.344C86.0216 93.8347 86.3843 94.2133 86.8323 94.48C87.2909 94.736 87.7869 94.864 88.3203 94.864C88.8643 94.864 89.3603 94.736 89.8083 94.48C90.2669 94.2133 90.6296 93.8347 90.8963 93.344C91.1629 92.8427 91.2963 92.256 91.2963 91.584ZM96.1568 84.16V96H94.7008V84.16H96.1568ZM102.462 96.144C101.641 96.144 100.894 95.9573 100.222 95.584C99.5609 95.2107 99.0383 94.6827 98.6543 94C98.2809 93.3067 98.0943 92.5067 98.0943 91.6C98.0943 90.704 98.2863 89.9147 98.6703 89.232C99.0649 88.5387 99.5983 88.0107 100.27 87.648C100.942 87.2747 101.694 87.088 102.526 87.088C103.358 87.088 104.11 87.2747 104.782 87.648C105.454 88.0107 105.982 88.5333 106.366 89.216C106.761 89.8987 106.958 90.6933 106.958 91.6C106.958 92.5067 106.756 93.3067 106.35 94C105.956 94.6827 105.417 95.2107 104.734 95.584C104.052 95.9573 103.294 96.144 102.462 96.144ZM102.462 94.864C102.985 94.864 103.476 94.7413 103.934 94.496C104.393 94.2507 104.761 93.8827 105.038 93.392C105.326 92.9013 105.47 92.304 105.47 91.6C105.47 90.896 105.332 90.2987 105.054 89.808C104.777 89.3173 104.414 88.9547 103.966 88.72C103.518 88.4747 103.033 88.352 102.51 88.352C101.977 88.352 101.486 88.4747 101.038 88.72C100.601 88.9547 100.249 89.3173 99.9823 89.808C99.7156 90.2987 99.5823 90.896 99.5823 91.6C99.5823 92.3147 99.7103 92.9173 99.9663 93.408C100.233 93.8987 100.585 94.2667 101.022 94.512C101.46 94.7467 101.94 94.864 102.462 94.864ZM108.329 91.584C108.329 90.688 108.51 89.904 108.873 89.232C109.235 88.5493 109.731 88.0213 110.361 87.648C111.001 87.2747 111.71 87.088 112.489 87.088C113.257 87.088 113.923 87.2533 114.489 87.584C115.054 87.9147 115.475 88.3307 115.753 88.832V87.232H117.225V96H115.753V94.368C115.465 94.88 115.033 95.3067 114.457 95.648C113.891 95.9787 113.23 96.144 112.473 96.144C111.694 96.144 110.99 95.952 110.361 95.568C109.731 95.184 109.235 94.6453 108.873 93.952C108.51 93.2587 108.329 92.4693 108.329 91.584ZM115.753 91.6C115.753 90.9387 115.619 90.3627 115.353 89.872C115.086 89.3813 114.723 89.008 114.265 88.752C113.817 88.4853 113.321 88.352 112.777 88.352C112.233 88.352 111.737 88.48 111.289 88.736C110.841 88.992 110.483 89.3653 110.217 89.856C109.95 90.3467 109.817 90.9227 109.817 91.584C109.817 92.256 109.95 92.8427 110.217 93.344C110.483 93.8347 110.841 94.2133 111.289 94.48C111.737 94.736 112.233 94.864 112.777 94.864C113.321 94.864 113.817 94.736 114.265 94.48C114.723 94.2133 115.086 93.8347 115.353 93.344C115.619 92.8427 115.753 92.2613 115.753 91.6ZM119.141 91.584C119.141 90.688 119.322 89.904 119.685 89.232C120.048 88.5493 120.544 88.0213 121.173 87.648C121.813 87.2747 122.528 87.088 123.317 87.088C124 87.088 124.634 87.248 125.221 87.568C125.808 87.8773 126.256 88.288 126.565 88.8V84.16H128.037V96H126.565V94.352C126.277 94.8747 125.85 95.3067 125.285 95.648C124.72 95.9787 124.058 96.144 123.301 96.144C122.522 96.144 121.813 95.952 121.173 95.568C120.544 95.184 120.048 94.6453 119.685 93.952C119.322 93.2587 119.141 92.4693 119.141 91.584ZM126.565 91.6C126.565 90.9387 126.432 90.3627 126.165 89.872C125.898 89.3813 125.536 89.008 125.077 88.752C124.629 88.4853 124.133 88.352 123.589 88.352C123.045 88.352 122.549 88.48 122.101 88.736C121.653 88.992 121.296 89.3653 121.029 89.856C120.762 90.3467 120.629 90.9227 120.629 91.584C120.629 92.256 120.762 92.8427 121.029 93.344C121.296 93.8347 121.653 94.2133 122.101 94.48C122.549 94.736 123.045 94.864 123.589 94.864C124.133 94.864 124.629 94.736 125.077 94.48C125.536 94.2133 125.898 93.8347 126.165 93.344C126.432 92.8427 126.565 92.2613 126.565 91.6ZM142.315 87.232L137.035 100.128H135.531L137.259 95.904L133.723 87.232H135.339L138.091 94.336L140.811 87.232H142.315ZM147.603 96.144C146.782 96.144 146.035 95.9573 145.363 95.584C144.702 95.2107 144.179 94.6827 143.795 94C143.422 93.3067 143.235 92.5067 143.235 91.6C143.235 90.704 143.427 89.9147 143.811 89.232C144.206 88.5387 144.739 88.0107 145.411 87.648C146.083 87.2747 146.835 87.088 147.667 87.088C148.499 87.088 149.251 87.2747 149.923 87.648C150.595 88.0107 151.123 88.5333 151.507 89.216C151.902 89.8987 152.099 90.6933 152.099 91.6C152.099 92.5067 151.896 93.3067 151.491 94C151.096 94.6827 150.558 95.2107 149.875 95.584C149.192 95.9573 148.435 96.144 147.603 96.144ZM147.603 94.864C148.126 94.864 148.616 94.7413 149.075 94.496C149.534 94.2507 149.902 93.8827 150.179 93.392C150.467 92.9013 150.611 92.304 150.611 91.6C150.611 90.896 150.472 90.2987 150.195 89.808C149.918 89.3173 149.555 88.9547 149.107 88.72C148.659 88.4747 148.174 88.352 147.651 88.352C147.118 88.352 146.627 88.4747 146.179 88.72C145.742 88.9547 145.39 89.3173 145.123 89.808C144.856 90.2987 144.723 90.896 144.723 91.6C144.723 92.3147 144.851 92.9173 145.107 93.408C145.374 93.8987 145.726 94.2667 146.163 94.512C146.6 94.7467 147.08 94.864 147.603 94.864ZM161.789 87.232V96H160.333V94.704C160.056 95.152 159.667 95.504 159.165 95.76C158.675 96.0053 158.131 96.128 157.533 96.128C156.851 96.128 156.237 95.9893 155.693 95.712C155.149 95.424 154.717 94.9973 154.397 94.432C154.088 93.8667 153.933 93.1787 153.933 92.368V87.232H155.373V92.176C155.373 93.04 155.592 93.7067 156.029 94.176C156.467 94.6347 157.064 94.864 157.821 94.864C158.6 94.864 159.213 94.624 159.661 94.144C160.109 93.664 160.333 92.9653 160.333 92.048V87.232H161.789ZM165.704 88.656C165.96 88.1547 166.322 87.7653 166.792 87.488C167.272 87.2107 167.853 87.072 168.536 87.072V88.576H168.152C166.52 88.576 165.704 89.4613 165.704 91.232V96H164.248V87.232H165.704V88.656ZM175.938 88.656C176.194 88.1547 176.557 87.7653 177.026 87.488C177.506 87.2107 178.087 87.072 178.77 87.072V88.576H178.386C176.754 88.576 175.938 89.4613 175.938 91.232V96H174.482V87.232H175.938V88.656ZM188.451 91.28C188.451 91.5573 188.435 91.8507 188.403 92.16H181.395C181.448 93.024 181.741 93.7013 182.275 94.192C182.819 94.672 183.475 94.912 184.243 94.912C184.872 94.912 185.395 94.768 185.811 94.48C186.237 94.1813 186.536 93.7867 186.707 93.296H188.275C188.04 94.1387 187.571 94.8267 186.867 95.36C186.163 95.8827 185.288 96.144 184.243 96.144C183.411 96.144 182.664 95.9573 182.003 95.584C181.352 95.2107 180.84 94.6827 180.467 94C180.093 93.3067 179.907 92.5067 179.907 91.6C179.907 90.6933 180.088 89.8987 180.451 89.216C180.813 88.5333 181.32 88.0107 181.971 87.648C182.632 87.2747 183.389 87.088 184.243 87.088C185.075 87.088 185.811 87.2693 186.451 87.632C187.091 87.9947 187.581 88.496 187.923 89.136C188.275 89.7653 188.451 90.48 188.451 91.28ZM186.947 90.976C186.947 90.4213 186.824 89.9467 186.579 89.552C186.333 89.1467 185.997 88.8427 185.571 88.64C185.155 88.4267 184.691 88.32 184.179 88.32C183.443 88.32 182.813 88.5547 182.291 89.024C181.779 89.4933 181.485 90.144 181.411 90.976H186.947ZM193.477 96.144C192.805 96.144 192.202 96.032 191.669 95.808C191.135 95.5733 190.714 95.2533 190.405 94.848C190.095 94.432 189.925 93.9573 189.893 93.424H191.397C191.439 93.8613 191.642 94.2187 192.005 94.496C192.378 94.7733 192.863 94.912 193.461 94.912C194.015 94.912 194.453 94.7893 194.773 94.544C195.093 94.2987 195.253 93.9893 195.253 93.616C195.253 93.232 195.082 92.9493 194.741 92.768C194.399 92.576 193.871 92.3893 193.157 92.208C192.506 92.0373 191.973 91.8667 191.557 91.696C191.151 91.5147 190.799 91.2533 190.501 90.912C190.213 90.56 190.069 90.1013 190.069 89.536C190.069 89.088 190.202 88.6773 190.469 88.304C190.735 87.9307 191.114 87.6373 191.605 87.424C192.095 87.2 192.655 87.088 193.285 87.088C194.255 87.088 195.039 87.3333 195.637 87.824C196.234 88.3147 196.554 88.9867 196.597 89.84H195.141C195.109 89.3813 194.922 89.0133 194.581 88.736C194.25 88.4587 193.802 88.32 193.237 88.32C192.714 88.32 192.298 88.432 191.989 88.656C191.679 88.88 191.525 89.1733 191.525 89.536C191.525 89.824 191.615 90.064 191.797 90.256C191.989 90.4373 192.223 90.5867 192.501 90.704C192.789 90.8107 193.183 90.9333 193.685 91.072C194.314 91.2427 194.826 91.4133 195.221 91.584C195.615 91.744 195.951 91.9893 196.229 92.32C196.517 92.6507 196.666 93.0827 196.677 93.616C196.677 94.096 196.543 94.528 196.277 94.912C196.01 95.296 195.631 95.6 195.141 95.824C194.661 96.0373 194.106 96.144 193.477 96.144ZM206.508 87.232V96H205.052V94.704C204.775 95.152 204.385 95.504 203.884 95.76C203.393 96.0053 202.849 96.128 202.252 96.128C201.569 96.128 200.956 95.9893 200.412 95.712C199.868 95.424 199.436 94.9973 199.116 94.432C198.807 93.8667 198.652 93.1787 198.652 92.368V87.232H200.092V92.176C200.092 93.04 200.311 93.7067 200.748 94.176C201.185 94.6347 201.783 94.864 202.54 94.864C203.319 94.864 203.932 94.624 204.38 94.144C204.828 93.664 205.052 92.9653 205.052 92.048V87.232H206.508ZM219.51 87.072C220.193 87.072 220.801 87.216 221.334 87.504C221.868 87.7813 222.289 88.2027 222.598 88.768C222.908 89.3333 223.062 90.0213 223.062 90.832V96H221.622V91.04C221.622 90.1653 221.404 89.4987 220.966 89.04C220.54 88.5707 219.958 88.336 219.222 88.336C218.465 88.336 217.862 88.5813 217.414 89.072C216.966 89.552 216.742 90.2507 216.742 91.168V96H215.302V91.04C215.302 90.1653 215.084 89.4987 214.646 89.04C214.22 88.5707 213.638 88.336 212.902 88.336C212.145 88.336 211.542 88.5813 211.094 89.072C210.646 89.552 210.422 90.2507 210.422 91.168V96H208.966V87.232H210.422V88.496C210.71 88.0373 211.094 87.6853 211.574 87.44C212.065 87.1947 212.604 87.072 213.19 87.072C213.926 87.072 214.577 87.2373 215.142 87.568C215.708 87.8987 216.129 88.384 216.406 89.024C216.652 88.4053 217.057 87.9253 217.622 87.584C218.188 87.2427 218.817 87.072 219.51 87.072ZM233.451 91.28C233.451 91.5573 233.435 91.8507 233.403 92.16H226.395C226.448 93.024 226.741 93.7013 227.275 94.192C227.819 94.672 228.475 94.912 229.243 94.912C229.872 94.912 230.395 94.768 230.811 94.48C231.237 94.1813 231.536 93.7867 231.707 93.296H233.275C233.04 94.1387 232.571 94.8267 231.867 95.36C231.163 95.8827 230.288 96.144 229.243 96.144C228.411 96.144 227.664 95.9573 227.003 95.584C226.352 95.2107 225.84 94.6827 225.467 94C225.093 93.3067 224.907 92.5067 224.907 91.6C224.907 90.6933 225.088 89.8987 225.451 89.216C225.813 88.5333 226.32 88.0107 226.971 87.648C227.632 87.2747 228.389 87.088 229.243 87.088C230.075 87.088 230.811 87.2693 231.451 87.632C232.091 87.9947 232.581 88.496 232.923 89.136C233.275 89.7653 233.451 90.48 233.451 91.28ZM231.947 90.976C231.947 90.4213 231.824 89.9467 231.579 89.552C231.333 89.1467 230.997 88.8427 230.571 88.64C230.155 88.4267 229.691 88.32 229.179 88.32C228.443 88.32 227.813 88.5547 227.291 89.024C226.779 89.4933 226.485 90.144 226.411 90.976H231.947Z" fill="#939393"/>
<circle cx="148.5" cy="46.5" r="21.5" fill="#E3E4E9"/>
<path d="M157 43.6667V51.9778C157 53.0356 157 53.5646 156.813 53.9687C156.649 54.3241 156.387 54.6131 156.064 54.7941C155.697 55 155.217 55 154.257 55H147.743C146.783 55 146.303 55 145.936 54.7941C145.613 54.6131 145.351 54.3241 145.187 53.9687C145 53.5646 145 53.0356 145 51.9778V41.0222C145 39.9643 145 39.4354 145.187 39.0314C145.351 38.6759 145.613 38.387 145.936 38.2059C146.303 38 146.783 38 147.743 38H151.857M157 43.6667L151.857 38M157 43.6667H152.714C152.241 43.6667 151.857 43.2438 151.857 42.7222V38" stroke="#AFB5C5" stroke-linecap="round" stroke-linejoin="round"/>
<defs>
<linearGradient id="paint0_linear_517_113" x1="145.5" y1="0" x2="145.5" y2="137" gradientUnits="userSpaceOnUse">
<stop stop-color="#EDEDF1"/>
<stop offset="1" stop-color="#F6F7FA"/>
</linearGradient>
</defs>
</svg>
